<?xml version="1.0" standalone="no"?>
<!DOCTYPE svg PUBLIC "-//W3C//DTD SVG 20010904//EN"
 "http://www.w3.org/TR/2001/REC-SVG-20010904/DTD/svg10.dtd">
<svg version="1.0" xmlns="http://www.w3.org/2000/svg"
 width="500.000000pt" height="500.000000pt" viewBox="0 0 500.000000 500.000000"
 preserveAspectRatio="xMidYMid meet">

<g transform="translate(0.000000,500.000000) scale(0.100000,-0.100000)"
fill="#000000" stroke="none">
<path d="M2407 4274 c6 -44 5 -46 -18 -42 -26 3 -42 44 -26 66 10 13 -1 16
-26 6 -13 -5 -13 -9 0 -35 15 -30 11 -49 -11 -49 -17 0 -40 55 -30 71 5 8 2
11 -8 7 -8 -3 -49 -12 -92 -18 -59 -10 -104 -27 -193 -72 -64 -32 -129 -68
-146 -80 l-29 -21 32 -20 c28 -18 30 -22 17 -35 -14 -13 -19 -12 -45 7 -42 30
-51 26 -18 -7 22 -24 24 -31 13 -40 -10 -8 -21 -6 -45 8 -36 22 -44 10 -10
-14 16 -12 19 -19 11 -27 -8 -8 -20 -6 -43 6 -42 22 -51 12 -11 -11 17 -10 30
-23 28 -29 -5 -13 -38 -19 -46 -8 -10 14 -49 32 -55 26 -3 -4 8 -14 24 -24 29
-18 41 -49 20 -49 -11 0 -61 30 -70 41 -7 9 -63 -40 -85 -73 -15 -25 -15 -28
-2 -28 26 0 67 -22 67 -37 0 -7 -4 -13 -10 -13 -13 0 -64 23 -71 33 -7 10 -24
-11 -33 -40 -5 -17 -3 -23 7 -23 8 0 25 -9 38 -19 36 -30 13 -44 -33 -21 -34
16 -48 17 -48 0 0 -4 18 -12 41 -19 23 -7 39 -17 36 -24 -6 -17 -59 -9 -74 10
-11 14 -13 13 -21 -8 -25 -66 -25 -67 9 -71 18 -2 35 -9 37 -17 5 -14 -18 -12
-62 5 -10 4 -16 1 -16 -9 0 -10 11 -17 27 -19 14 -2 29 -9 31 -17 4 -11 -4
-13 -37 -7 -25 4 -41 2 -41 -4 0 -5 11 -10 25 -10 14 0 28 -7 32 -15 8 -23 1
-26 -35 -16 -42 12 -41 -3 1 -20 l32 -13 -38 -4 c-47 -4 -49 -9 -71 -166 -25
-171 -15 -287 35 -429 22 -59 49 -127 60 -150 83 -163 252 -356 395 -451 193
-129 207 -136 364 -185 74 -23 154 -49 178 -58 35 -12 71 -14 182 -9 76 3 161
11 190 16 77 15 364 160 462 234 46 35 121 103 168 153 73 77 95 108 148 214
34 68 78 167 97 219 70 185 70 441 1 639 -28 81 -42 103 -54 85 -10 -16 -48
-34 -56 -27 -19 19 30 63 55 48 13 -9 11 6 -6 35 -13 23 -14 23 -15 4 0 -26
-45 -53 -61 -37 -11 11 -3 22 44 56 17 12 16 17 -20 82 -91 165 -176 275 -249
326 -24 16 -45 29 -48 29 -2 0 -7 -13 -11 -29 -10 -44 -30 -57 -48 -30 -13 17
-13 26 -4 48 6 14 16 29 21 32 9 7 0 29 -13 29 -4 0 -13 -18 -20 -40 -13 -43
-18 -47 -44 -27 -15 10 -15 17 -5 50 7 24 16 36 25 33 29 -12 10 11 -30 34
-77 46 -135 62 -134 38 2 -56 -3 -69 -25 -66 -21 3 -23 8 -20 51 2 29 0 47 -7
47 -6 0 -11 -15 -11 -34 0 -38 -10 -49 -34 -40 -18 7 -21 46 -6 75 8 15 7 19
-5 19 -10 0 -15 -10 -15 -27 0 -40 -14 -56 -39 -48 -30 9 -30 65 1 73 21 5 21
6 2 13 -38 15 -42 11 -37 -32 6 -40 5 -41 -23 -37 -25 2 -29 8 -32 36 -2 23 1
34 14 39 29 11 -41 31 -109 32 l-58 1 3 -37 c3 -35 1 -38 -22 -38 -22 0 -25 5
-28 38 -2 24 -8 37 -18 37 -11 0 -12 -4 -4 -19 19 -36 13 -61 -15 -61 -22 0
-25 4 -25 34 0 19 6 37 13 39 6 3 0 6 -15 6 -27 1 -27 0 -21 -45z m213 -4 c0
-32 -4 -40 -18 -40 -24 0 -42 19 -42 45 0 28 8 35 37 35 20 0 23 -5 23 -40z
m58 -14 c3 -32 1 -37 -15 -34 -19 3 -29 38 -19 65 10 26 31 8 34 -31z m-402 7
c19 -26 17 -53 -4 -53 -19 0 -56 53 -45 64 12 11 36 6 49 -11z m-61 -23 c19
-21 14 -50 -9 -50 -16 0 -46 37 -46 57 0 20 35 15 55 -7z m-64 -21 c18 -26 19
-33 8 -40 -24 -15 -38 -10 -53 20 -11 21 -12 31 -3 40 17 17 24 14 48 -20z
m-62 -25 c11 -15 18 -30 15 -35 -11 -18 -42 -8 -59 17 -14 22 -15 28 -4 35 21
13 26 11 48 -17z m908 -25 c-3 -22 -8 -43 -11 -46 -12 -12 -34 19 -29 40 9 42
12 47 29 47 14 0 16 -7 11 -41z m-947 -30 c0 -4 -8 -10 -17 -14 -12 -4 -24 1
-35 15 -37 46 -8 76 29 32 13 -15 23 -30 23 -33z m1022 17 c-1 -3 -5 -19 -8
-36 -7 -33 -20 -37 -48 -17 -17 12 -17 16 -2 51 15 37 17 38 38 24 13 -9 22
-18 20 -22z m-1094 -16 c14 -24 8 -40 -15 -40 -17 0 -42 28 -43 48 0 20 44 14
58 -8z m-66 -27 c21 -19 24 -43 6 -43 -20 1 -60 38 -53 50 9 15 26 12 47 -7z
m695 -4 c249 -33 445 -132 641 -321 55 -54 142 -168 142 -187 0 -4 -11 -18
-25 -31 l-24 -23 -36 27 c-30 23 -34 30 -24 43 11 12 9 13 -12 9 -21 -5 -31 4
-74 62 -27 37 -49 73 -48 80 0 7 -5 11 -12 8 -21 -8 -140 94 -137 117 1 11 -3
17 -10 14 -7 -2 -12 -10 -10 -17 2 -8 -3 -10 -15 -6 -10 4 -47 10 -83 12 -77
7 -83 10 -75 35 4 11 2 19 -4 19 -6 0 -11 -7 -11 -15 0 -19 -30 -19 -56 0 -10
8 -25 15 -32 15 -7 0 -39 12 -70 26 -80 37 -194 36 -284 -2 -35 -14 -70 -32
-78 -39 -26 -21 -125 -66 -181 -80 -70 -19 -99 -19 -99 0 0 8 -4 15 -10 15 -5
0 -10 -6 -10 -13 0 -8 -19 -19 -41 -26 -34 -10 -43 -10 -50 1 -7 10 -9 9 -9
-4 0 -19 -48 -48 -67 -41 -7 3 -13 -2 -13 -10 0 -21 -37 -50 -55 -43 -12 4
-14 0 -9 -18 4 -17 -1 -28 -20 -44 -14 -11 -26 -26 -26 -33 -1 -18 -47 -52
-60 -44 -16 10 -12 25 8 26 10 0 12 3 4 6 -15 6 69 131 128 188 32 31 43 37
49 26 5 -7 14 -10 20 -6 9 5 9 11 -1 22 -16 20 3 36 134 109 220 124 436 172
645 143z m647 -76 c6 -15 -22 -73 -35 -73 -4 0 -12 7 -19 15 -11 13 -10 22 3
50 17 35 40 39 51 8z m56 -89 c-20 -36 -38 -41 -61 -17 -20 20 -20 20 7 52
l27 32 20 -20 c19 -18 19 -23 7 -47z m-774 35 c77 -14 176 -47 190 -65 6 -8
19 -14 28 -14 9 0 16 -3 16 -7 0 -5 21 -9 47 -9 32 -1 51 -7 60 -20 7 -10 13
-13 13 -7 0 15 26 24 46 16 9 -3 14 -13 11 -24 -3 -11 2 -19 15 -22 11 -3 22
-15 25 -26 3 -12 8 -21 12 -22 3 0 21 -2 40 -4 18 -1 36 -7 40 -13 3 -5 17
-12 31 -13 16 -3 37 -22 62 -58 55 -79 47 -84 -20 -12 -48 52 -61 61 -79 54
l-21 -8 24 -29 c14 -15 28 -25 32 -22 3 4 0 11 -8 16 -8 5 -11 13 -6 17 4 4
24 -9 43 -31 27 -30 32 -40 22 -47 -11 -6 -11 -11 -1 -21 9 -9 12 -9 12 2 1 9
11 3 26 -15 17 -19 28 -26 31 -17 7 17 32 15 39 -3 4 -8 12 -15 19 -15 6 0 20
-9 30 -20 18 -19 17 -20 -3 -20 -15 0 -22 -6 -22 -20 0 -51 -64 -4 -196 143
-97 109 -138 138 -212 151 -35 6 -68 -7 -109 -43 -13 -11 -23 -23 -23 -28 0
-12 -55 -43 -77 -43 -15 0 -14 3 7 20 14 11 19 20 12 20 -10 0 -10 5 -2 20 14
25 -2 26 -24 1 -10 -11 -28 -22 -42 -25 -13 -4 -24 -11 -24 -17 0 -6 7 -9 15
-6 32 13 24 -14 -9 -30 -20 -9 -36 -23 -36 -31 0 -9 -7 -11 -20 -7 -30 10 -26
-18 14 -91 29 -53 33 -65 22 -80 -8 -10 -18 -14 -26 -9 -10 6 -9 10 1 17 10 7
8 8 -6 3 -11 -4 -30 -10 -42 -12 -20 -5 -22 -2 -16 31 4 25 0 44 -12 62 -12
18 -15 38 -12 60 7 41 -10 54 -64 47 -29 -4 -52 1 -94 22 -31 16 -61 35 -67
42 -33 40 -121 49 -265 27 -26 -4 -33 -1 -38 17 -5 15 -10 18 -18 10 -6 -6
-20 -11 -31 -12 -18 -1 -17 -2 4 -9 14 -4 19 -8 13 -9 -7 -1 -13 -7 -13 -13 0
-17 -139 -166 -140 -151 0 7 16 30 35 52 19 21 35 45 35 52 0 13 -70 -56 -70
-70 0 -3 -12 -14 -26 -25 -18 -13 -28 -15 -33 -7 -11 18 -74 -40 -66 -61 6
-14 11 -15 31 -6 13 6 24 15 24 19 0 5 15 16 33 25 l32 17 -24 -26 c-13 -15
-40 -35 -60 -45 -20 -11 -51 -27 -69 -36 -18 -10 -40 -15 -50 -11 -14 6 -12
11 18 37 28 24 30 29 13 23 -36 -10 -27 11 13 30 19 9 58 39 87 66 28 27 59
51 68 54 11 4 15 13 12 25 -5 19 50 79 74 80 7 0 38 12 69 26 39 18 68 25 93
22 20 -3 43 -2 51 2 27 13 100 27 100 20 0 -4 -16 -15 -35 -24 -41 -20 -53
-36 -27 -36 10 0 27 9 37 20 10 11 26 22 36 25 11 4 19 13 19 20 0 18 39 45
64 45 11 0 30 10 41 23 21 24 111 60 186 76 3 0 32 -4 65 -10z m822 -51 c16
-16 15 -29 -8 -58 l-19 -25 -21 23 c-20 21 -20 23 -3 47 20 27 33 31 51 13z
m-1679 -46 c3 -1 0 -7 -6 -13 -8 -8 -20 -6 -42 7 -17 10 -31 21 -31 24 0 22
24 16 79 -18z m-59 -17 c53 -27 25 -58 -30 -35 -33 14 -32 12 -24 34 8 20 17
20 54 1z m1778 -52 l-22 -23 -20 20 -20 20 24 25 25 26 18 -22 c17 -21 17 -23
-5 -46z m-368 5 c0 -12 -13 -9 -43 10 -15 10 -24 21 -21 25 8 8 64 -23 64 -35z
m420 -38 c0 -4 -9 -15 -19 -24 -36 -33 -57 9 -24 46 16 18 18 18 30 2 7 -10
13 -21 13 -24z m-1860 -26 c0 -17 -21 -18 -55 -2 -42 19 -32 38 15 26 22 -6
40 -16 40 -24z m1888 -18 c5 -22 -16 -46 -39 -46 -24 0 -25 27 -2 52 19 21 37
19 41 -6z m33 -52 c11 -14 10 -19 -10 -35 -29 -23 -51 -24 -51 -2 0 17 27 53
40 53 4 0 14 -7 21 -16z m-2004 -49 c3 -9 3 -18 0 -21 -11 -11 -67 8 -67 22 0
20 59 19 67 -1z m423 -75 c0 -5 -2 -10 -4 -10 -3 0 -8 5 -11 10 -3 6 -1 10 4
10 6 0 11 -4 11 -10z m-254 -26 c-11 -7 -22 -12 -25 -9 -2 3 4 12 15 19 10 8
21 12 24 9 3 -2 -4 -11 -14 -19z m684 -4 c0 -5 -4 -10 -10 -10 -5 0 -10 5 -10
10 0 6 5 10 10 10 6 0 10 -4 10 -10z m1225 -10 c0 -22 -46 -42 -63 -28 -11 10
-9 15 10 30 26 20 53 20 53 -2z m-182 -20 c17 -14 23 -26 20 -40 -3 -12 0 -20
6 -20 7 0 9 -5 6 -10 -12 -19 -138 28 -130 48 3 8 5 18 5 23 0 16 29 9 49 -12
11 -12 25 -18 31 -14 8 5 2 14 -17 26 -18 12 -22 19 -12 19 9 0 28 -9 42 -20z
m197 -40 c0 -15 -7 -20 -29 -20 -34 0 -51 18 -30 31 26 17 59 10 59 -11z
m-720 -10 c0 -5 -4 -10 -10 -10 -5 0 -10 5 -10 10 0 6 5 10 10 10 6 0 10 -4
10 -10z m694 -47 c-5 -5 -12 -12 -16 -18 -4 -6 -8 -2 -8 8 0 9 7 17 17 17 9 0
12 -3 7 -7z m46 3 c0 -3 -4 -8 -10 -11 -5 -3 -10 -1 -10 4 0 6 5 11 10 11 6 0
10 -2 10 -4z m-30 -62 c0 -2 -7 -4 -15 -4 -8 0 -15 4 -15 10 0 5 7 7 15 4 8
-4 15 -8 15 -10z m30 6 c0 -5 -4 -10 -10 -10 -5 0 -10 5 -10 10 0 6 5 10 10
10 6 0 10 -4 10 -10z m-780 -20 c492 -9 688 -15 696 -23 14 -15 34 -96 34
-139 0 -58 -10 -63 -107 -63 -83 1 -94 4 -188 47 -178 81 -279 97 -392 62 -74
-23 -127 -74 -182 -173 -25 -46 -58 -93 -72 -104 -24 -17 -30 -18 -55 -6 -18
9 -37 32 -51 62 -13 26 -25 47 -27 47 -2 0 -18 -25 -35 -55 -35 -62 -67 -78
-110 -54 -22 13 -27 24 -32 77 -4 43 -14 74 -33 102 -32 49 -105 104 -165 125
-68 23 -195 20 -288 -9 -173 -52 -198 -58 -254 -66 -63 -9 -127 1 -141 22 -10
14 -4 120 8 151 8 21 -58 21 1394 -3z m-1310 -230 c58 -12 152 -13 184 0 14 5
26 7 26 4 0 -8 -110 -146 -153 -191 -43 -45 -93 -72 -106 -57 -14 15 -31 102
-38 186 l-6 79 24 -5 c13 -3 44 -10 69 -16z m647 -6 c34 -25 56 -87 48 -132
-7 -37 -55 -96 -96 -118 -69 -35 -212 -7 -258 52 -27 35 -36 125 -17 163 27
52 57 62 183 59 95 -3 116 -6 140 -24z m918 -15 c97 -47 97 -207 0 -254 -21
-9 -66 -19 -99 -22 -122 -8 -215 61 -216 159 0 52 55 113 113 127 55 13 166 8
202 -10z m309 -49 c15 0 55 7 88 16 33 8 62 13 64 11 4 -3 -20 -124 -37 -189
-12 -46 -32 -49 -88 -13 -40 25 -50 36 -101 115 -16 25 -37 55 -45 67 l-17 22
54 -15 c29 -7 66 -14 82 -14z m-1723 -189 c-6 -10 -13 -45 -16 -77 -9 -87 -26
-184 -34 -184 -9 1 -61 75 -94 134 -29 53 -29 76 1 76 10 0 42 15 72 34 65 40
86 45 71 17z m971 -11 l51 10 46 -48 c59 -61 127 -93 211 -99 71 -6 90 -19 90
-63 0 -34 -45 -96 -105 -145 l-46 -38 -22 21 c-19 19 -20 25 -9 55 18 49 15
108 -8 144 -40 66 -94 81 -210 59 -107 -21 -168 -20 -265 3 -143 34 -158 35
-213 11 -77 -33 -97 -60 -97 -130 0 -41 5 -64 17 -77 15 -16 16 -24 6 -51 -7
-18 -17 -32 -23 -32 -5 1 -44 18 -85 38 -92 46 -116 79 -105 149 11 72 35 89
135 96 74 5 96 11 175 51 85 43 93 45 155 40 51 -4 73 -1 100 13 34 18 37 18
93 1 46 -14 67 -16 109 -8z m769 -38 c54 -3 69 -8 69 -20 0 -47 -154 -292
-172 -274 -19 19 -28 88 -23 167 4 52 1 100 -8 137 l-14 57 39 -32 c34 -27 49
-32 109 -35z m-1607 -73 c0 -30 -6 -68 -14 -85 -12 -28 -11 -36 11 -80 21 -43
64 -84 124 -119 24 -14 14 -74 -19 -112 l-23 -27 -34 28 c-56 46 -140 128
-165 161 l-24 31 30 70 c16 38 30 76 30 85 0 24 59 111 73 106 8 -2 12 -24 11
-58z m1359 49 c2 -7 10 -47 16 -88 19 -118 28 -143 68 -189 l37 -44 -55 -51
c-30 -28 -88 -73 -127 -99 -83 -56 -86 -55 -127 26 -36 73 -33 87 25 122 78
46 99 73 110 141 6 32 10 79 10 104 0 25 3 55 6 68 7 24 29 30 37 10z m-897
-49 c9 -15 -27 -160 -39 -156 -5 1 -22 34 -38 72 -28 65 -29 70 -13 82 22 16
80 17 90 2z m152 -48 c7 -20 -56 -13 -67 8 -6 10 -8 21 -5 24 8 8 68 -19 72
-32z m341 30 c12 -8 11 -18 -7 -63 -11 -29 -23 -61 -26 -70 -3 -10 -10 -18
-15 -18 -10 0 -14 9 -41 86 -13 38 -15 55 -7 63 13 13 76 14 96 2z m-600 -79
c34 -76 41 -113 12 -69 -22 33 -32 34 -48 4 -11 -21 -12 -21 -27 15 -9 20 -13
45 -10 55 10 32 27 63 34 63 4 0 21 -31 39 -68z m451 58 c0 -13 -28 -25 -38
-16 -3 4 0 11 8 16 20 13 30 12 30 0z m-80 -9 c0 -20 -28 -31 -54 -21 -39 14
-32 30 14 30 22 0 40 -4 40 -9z m-190 -10 c0 -18 -94 -175 -98 -163 -4 12 30
119 49 154 10 18 49 26 49 9z m487 -3 c41 -52 14 -152 -27 -103 -16 19 -27 12
-46 -33 -9 -20 -18 -32 -20 -26 -3 6 7 34 21 61 14 28 25 53 25 56 0 3 4 17
10 31 10 29 22 33 37 14z m-261 -33 c-18 -69 -21 -73 -70 -68 -29 4 -51 1 -61
-7 -12 -10 -16 -9 -22 6 -3 11 -15 30 -25 43 -10 13 -18 27 -18 31 0 10 79 9
86 -1 9 -15 71 -10 78 6 3 8 13 15 22 15 12 0 15 -6 10 -25z m96 -33 c35 -79
41 -102 29 -102 -11 0 -81 130 -81 150 0 5 6 10 13 10 7 0 24 -26 39 -58z
m-284 -31 c33 -58 29 -71 -17 -71 -22 0 -46 -3 -55 -6 -9 -3 -16 -1 -16 6 0
23 43 110 54 110 7 0 22 -17 34 -39z m246 -7 c11 -27 15 -49 10 -54 -11 -11
-84 -1 -84 11 0 21 33 89 44 89 6 0 19 -21 30 -46z m-467 -40 c-9 -9 -28 6
-21 18 4 6 10 6 17 -1 6 -6 8 -13 4 -17z m341 9 c-2 -10 -10 -18 -18 -18 -8 0
-16 8 -18 18 -2 12 3 17 18 17 15 0 20 -5 18 -17z m309 -10 c2 -6 -3 -13 -12
-16 -10 -5 -15 0 -15 14 0 21 21 22 27 2z m-641 -36 c30 -11 109 -13 334 -12
162 1 302 5 311 9 18 8 44 -17 36 -36 -22 -59 -419 -92 -592 -50 -84 20 -155
47 -155 57 0 8 20 45 24 45 2 0 21 -6 42 -13z m148 -172 c43 -8 108 -15 143
-15 92 0 267 27 336 51 58 20 77 19 77 -6 0 -7 19 -37 42 -66 l41 -53 -23 -15
c-72 -49 -265 -91 -410 -91 -84 0 -266 23 -332 41 -56 15 -218 90 -218 100 0
5 16 37 35 72 l35 64 98 -33 c53 -19 132 -41 176 -49z"/>
<path d="M2525 4080 c4 -6 11 -8 16 -5 14 9 11 15 -7 15 -8 0 -12 -5 -9 -10z"/>
<path d="M2405 4070 c-3 -5 1 -10 9 -10 9 0 16 5 16 10 0 6 -4 10 -9 10 -6 0
-13 -4 -16 -10z"/>
<path d="M2287 4063 c-12 -11 -8 -23 8 -23 8 0 15 7 15 15 0 16 -12 20 -23 8z"/>
<path d="M2650 4060 c0 -5 7 -10 15 -10 8 0 15 5 15 10 0 6 -7 10 -15 10 -8 0
-15 -4 -15 -10z"/>
<path d="M2190 4024 c0 -8 5 -12 10 -9 6 3 10 10 10 16 0 5 -4 9 -10 9 -5 0
-10 -7 -10 -16z"/>
<path d="M2462 4029 c2 -6 8 -10 13 -10 5 0 11 4 13 10 2 6 -4 11 -13 11 -9 0
-15 -5 -13 -11z"/>
<path d="M2345 4010 c-3 -5 1 -10 9 -10 9 0 16 5 16 10 0 6 -4 10 -9 10 -6 0
-13 -4 -16 -10z"/>
<path d="M2800 4005 c0 -8 9 -15 20 -15 11 0 20 7 20 15 0 8 -9 15 -20 15 -11
0 -20 -7 -20 -15z"/>
<path d="M2680 3995 c0 -8 7 -15 15 -15 8 0 15 7 15 15 0 8 -7 15 -15 15 -8 0
-15 -7 -15 -15z"/>
<path d="M2085 3989 c-10 -15 3 -25 16 -12 7 7 7 13 1 17 -6 3 -14 1 -17 -5z"/>
<path d="M2910 3990 c0 -5 5 -10 11 -10 5 0 7 5 4 10 -3 6 -8 10 -11 10 -2 0
-4 -4 -4 -10z"/>
<path d="M2240 3964 c0 -8 5 -12 10 -9 6 3 10 10 10 16 0 5 -4 9 -10 9 -5 0
-10 -7 -10 -16z"/>
<path d="M2151 3961 c-10 -7 -10 -10 -1 -16 6 -4 16 -3 22 3 13 13 -4 23 -21
13z"/>
<path d="M1970 3940 c0 -5 5 -10 10 -10 6 0 10 5 10 10 0 6 -4 10 -10 10 -5 0
-10 -4 -10 -10z"/>
<path d="M2035 3920 c-3 -5 -1 -10 4 -10 6 0 11 5 11 10 0 6 -2 10 -4 10 -3 0
-8 -4 -11 -10z"/>
<path d="M2110 3890 c0 -5 5 -10 10 -10 6 0 10 5 10 10 0 6 -4 10 -10 10 -5 0
-10 -4 -10 -10z"/>
<path d="M1905 3880 c3 -5 10 -10 16 -10 5 0 9 5 9 10 0 6 -7 10 -16 10 -8 0
-12 -4 -9 -10z"/>
<path d="M3100 3860 c0 -5 5 -10 10 -10 6 0 10 5 10 10 0 6 -4 10 -10 10 -5 0
-10 -4 -10 -10z"/>
<path d="M2478 3953 c6 -2 18 -2 25 0 6 3 1 5 -13 5 -14 0 -19 -2 -12 -5z"/>
<path d="M2350 3927 c-25 -12 -61 -37 -80 -56 l-35 -33 46 24 c26 12 45 26 43
29 -2 4 14 14 35 23 22 8 42 20 46 26 9 15 -5 12 -55 -13z"/>
<path d="M2590 3943 c8 -2 25 -9 37 -15 13 -6 26 -8 29 -5 8 8 -40 27 -64 26
-14 0 -14 -2 -2 -6z"/>
<path d="M2508 3923 c6 -2 18 -2 25 0 6 3 1 5 -13 5 -14 0 -19 -2 -12 -5z"/>
<path d="M2410 3909 c0 -5 5 -7 10 -4 6 3 10 8 10 11 0 2 -4 4 -10 4 -5 0 -10
-5 -10 -11z"/>
<path d="M2605 3900 c3 -6 15 -10 26 -10 24 0 99 -37 99 -49 0 -9 -55 5 -115
29 -57 23 -143 30 -191 15 -25 -7 -46 -9 -50 -4 -9 16 -32 10 -37 -11 -3 -11
-18 -25 -34 -31 -26 -10 -27 -12 -10 -23 10 -6 42 -26 70 -45 29 -18 67 -40
85 -48 18 -7 37 -25 42 -38 8 -20 16 -25 45 -25 19 0 35 5 35 11 0 7 -9 9 -23
6 -28 -8 -60 9 -36 18 9 3 20 5 25 4 16 -4 61 19 95 49 19 16 51 35 72 43 34
12 38 17 35 43 -2 22 -12 33 -38 46 -42 21 -104 34 -95 20z m-63 -31 c29 -6
67 -17 85 -25 17 -8 38 -14 47 -14 23 0 20 -17 -6 -31 -13 -7 -34 -23 -48 -37
-63 -62 -116 -56 -249 27 l-53 34 28 15 c28 15 106 39 131 41 7 1 36 -4 65
-10z"/>
<path d="M2466 3831 c-35 -38 13 -90 62 -68 27 12 39 51 22 72 -17 21 -64 19
-84 -4z"/>
<path d="M2821 3836 c12 -10 59 -15 59 -6 0 5 -14 10 -32 10 -17 0 -29 -2 -27
-4z"/>
<path d="M2198 3813 c-10 -2 -18 -9 -18 -14 0 -13 13 -11 36 6 19 14 14 17
-18 8z"/>
<path d="M2773 3802 c-12 -2 -27 -10 -34 -18 -11 -13 -9 -14 17 -8 48 11 63
34 17 26z"/>
<path d="M2225 3760 c10 -11 22 -20 26 -20 4 0 35 -16 69 -36 46 -28 64 -34
73 -25 8 8 6 11 -9 11 -12 0 -28 8 -37 18 -36 40 -9 44 46 6 44 -30 63 -26 20
4 -27 18 -111 62 -121 62 -3 0 3 -9 12 -19 10 -10 14 -21 9 -24 -11 -7 -83 23
-83 34 0 5 -5 9 -12 9 -6 0 -3 -9 7 -20z"/>
<path d="M1828 3734 c-16 -8 -28 -17 -28 -19 0 -11 19 -4 41 15 29 23 24 25
-13 4z"/>
<path d="M2480 3590 c0 -5 7 -10 16 -10 8 0 12 5 9 10 -3 6 -10 10 -16 10 -5
0 -9 -4 -9 -10z"/>
<path d="M2516 3543 c-11 -11 -6 -23 9 -23 8 0 15 4 15 9 0 13 -16 22 -24 14z"/>
<path d="M3220 3541 c0 -5 5 -13 10 -16 6 -3 10 -2 10 4 0 5 -4 13 -10 16 -5
3 -10 2 -10 -4z"/>
<path d="M2000 3020 c-19 -35 -8 -73 22 -84 51 -18 91 49 52 88 -22 23 -61 20
-74 -4z"/>
<path d="M2947 2992 c-43 -47 -3 -105 56 -83 21 8 27 17 27 39 0 31 -26 62
-52 62 -8 0 -22 -8 -31 -18z"/>
<path d="M1493 1739 c-69 -27 -134 -98 -158 -174 -23 -75 -18 -210 12 -275 42
-95 126 -150 239 -158 124 -8 213 37 266 134 81 149 44 359 -76 441 -26 18
-64 37 -84 43 -57 16 -142 11 -199 -11z m172 -60 c87 -24 141 -120 138 -247
-2 -118 -54 -198 -145 -222 -93 -26 -176 12 -220 99 -55 107 -29 284 48 338
59 41 111 50 179 32z"/>
<path d="M2184 1744 c-58 -21 -120 -77 -152 -138 -25 -47 -27 -60 -27 -166 0
-109 2 -118 30 -170 33 -60 96 -114 153 -130 48 -13 165 -12 222 3 42 11 45
14 43 45 0 19 -3 36 -6 38 -3 3 -29 -2 -58 -10 -101 -30 -184 -15 -240 44 -47
49 -63 108 -57 209 8 144 79 217 208 215 36 0 82 -8 102 -17 l37 -15 10 30 c6
17 8 34 5 39 -10 17 -108 39 -168 38 -34 0 -80 -7 -102 -15z"/>
<path d="M600 1737 c0 -7 -6 -89 -14 -182 -8 -94 -18 -225 -21 -292 l-7 -123
40 0 40 0 6 73 c3 39 8 132 12 205 9 210 8 209 93 26 41 -88 80 -174 88 -191
11 -27 19 -33 43 -33 16 0 32 6 37 13 4 6 42 88 85 182 43 93 82 173 87 178
10 10 18 -79 27 -295 l7 -158 44 0 c40 0 43 2 39 23 -3 12 -8 78 -11 147 -6
132 -21 326 -31 398 -5 43 -6 43 -42 40 -35 -3 -39 -7 -77 -78 -22 -41 -67
-135 -101 -208 l-62 -134 -28 64 c-16 34 -61 129 -101 211 l-73 147 -40 0
c-26 0 -40 -4 -40 -13z"/>
<path d="M2570 1445 l0 -305 40 0 40 0 0 140 0 140 150 0 150 0 0 -140 0 -140
40 0 40 0 0 305 0 305 -40 0 -39 0 -3 -127 -3 -128 -147 -3 -148 -3 0 131 0
130 -40 0 -40 0 0 -305z"/>
<path d="M3180 1445 l0 -305 45 0 45 0 0 305 0 305 -45 0 -45 0 0 -305z"/>
<path d="M3420 1446 l0 -306 46 0 45 0 -3 140 c-2 78 1 140 6 140 26 0 172
-139 237 -225 40 -54 43 -55 91 -55 l50 0 -17 28 c-38 59 -132 167 -201 230
l-73 67 129 135 c71 74 129 138 130 143 0 4 -20 7 -43 7 -43 0 -47 -3 -172
-130 -71 -71 -131 -130 -135 -130 -3 0 -5 57 -5 127 l0 128 -42 3 -43 3 0
-305z"/>
<path d="M4126 1703 c-30 -61 -104 -240 -160 -391 -24 -64 -49 -130 -55 -145
l-11 -28 46 3 47 3 26 75 26 75 139 0 140 0 25 -77 25 -78 49 0 c43 0 48 2 42
18 -4 9 -35 91 -70 182 -35 91 -82 208 -105 260 -23 52 -47 107 -53 123 -10
23 -17 27 -49 27 -35 0 -39 -4 -62 -47z m120 -206 c26 -65 44 -120 42 -123 -3
-2 -53 -3 -111 -2 l-105 3 47 120 c56 145 60 152 72 134 5 -8 30 -67 55 -132z"/>
<path d="M3720 935 c0 -50 4 -85 10 -85 6 0 10 16 10 35 0 32 2 35 30 35 20 0
30 5 30 15 0 10 -10 15 -31 15 -26 0 -30 3 -27 23 2 17 11 23 36 25 48 5 39
22 -13 22 l-45 0 0 -85z"/>
<path d="M3914 1008 c-47 -22 -57 -95 -19 -133 33 -34 87 -34 120 0 69 68 -14
176 -101 133z m84 -31 c8 -6 12 -25 10 -46 -2 -26 -10 -39 -29 -50 -24 -13
-29 -13 -53 2 -20 13 -26 26 -26 52 0 56 53 78 98 42z"/>
<path d="M4124 996 c-39 -33 -39 -89 0 -122 57 -50 138 -14 138 61 0 75 -81
111 -138 61z m76 -6 c32 -17 43 -48 30 -81 -30 -71 -122 -35 -105 42 4 18 16
34 28 39 29 11 26 11 47 0z"/>
<path d="M4330 935 l0 -85 45 0 c58 0 95 32 95 82 -1 55 -40 88 -104 88 l-36
0 0 -85z m97 43 c18 -15 16 -68 -4 -90 -9 -10 -27 -18 -40 -18 -22 0 -23 3
-23 66 l0 66 27 -7 c16 -4 34 -11 40 -17z"/>
</g>
</svg>
